<svg width="120" height="25" viewBox="0 0 120 25" fill="none" xmlns="http://www.w3.org/2000/svg">
<g clip-path="url(#clip0_386_943)">
<path d="M17.6385 1.90669H12.1174V9.50198C11.0713 8.36423 9.61834 7.77997 7.7586 7.77997C6.30568 7.77997 4.99805 8.14897 3.83571 8.82548C2.64432 9.53273 1.71444 10.5475 1.01704 11.839C0.319638 13.1305 0 14.6373 0 16.3593C0 18.0813 0.319638 19.6188 1.01704 20.9103C1.71444 22.2326 2.64432 23.2473 3.83571 23.9546C4.99805 24.6618 6.30568 25.0001 7.7586 25.0001C9.79269 25.0001 11.3328 24.3543 12.3789 23.0628V24.7233H17.6385V1.90669ZM11.2747 19.3113C10.6354 20.0185 9.85081 20.3568 8.92094 20.3568C7.93296 20.3568 7.14837 20.0185 6.53814 19.3113C5.89886 18.604 5.60828 17.62 5.60828 16.3593C5.60828 15.1293 5.89886 14.176 6.53814 13.4688C7.14837 12.7923 7.93296 12.4232 8.92094 12.4232C9.87987 12.4232 10.6644 12.7923 11.2747 13.4688C11.8849 14.176 12.2045 15.1293 12.2045 16.3593C12.2045 17.62 11.8849 18.604 11.2747 19.3113Z" fill="#0A0A0A"/>
<path d="M21.1621 8.05655V24.7231H26.6832V8.05655H21.1621ZM21.4818 5.31978C22.092 5.93478 22.9056 6.21153 23.9227 6.21153C24.9107 6.21153 25.7243 5.93478 26.3636 5.31978C26.9738 4.70478 27.2935 3.93602 27.2935 3.01352C27.2935 2.15251 26.9738 1.41451 26.3636 0.861004C25.7243 0.307501 24.9107 0 23.9227 0C22.9056 0 22.092 0.307502 21.4818 0.891755C20.8425 1.50676 20.5519 2.24476 20.5519 3.10577C20.5519 3.99752 20.8425 4.73553 21.4818 5.31978Z" fill="#0A0A0A"/>
<path d="M32.0737 24.5385C33.3523 24.846 34.6309 24.9998 35.9676 24.9998C37.5948 24.9998 39.0187 24.7845 40.181 24.2925C41.3434 23.8313 42.2442 23.1855 42.8544 22.3553C43.4356 21.525 43.7552 20.5717 43.7552 19.5262C43.7552 18.2655 43.4356 17.2815 42.7963 16.5742C42.157 15.867 41.4305 15.375 40.5878 15.0982C39.7161 14.8522 38.6409 14.6062 37.3624 14.391C36.3163 14.2372 35.5898 14.0835 35.1539 13.9297C34.689 13.776 34.4856 13.4992 34.4856 13.0995C34.4856 12.7612 34.689 12.4845 35.0958 12.2692C35.5026 12.054 36.1419 11.931 37.0137 11.931C38.6409 11.931 40.152 12.3615 41.5468 13.161L43.2031 9.19419C42.4476 8.76368 41.4887 8.39468 40.3844 8.14868C39.2512 7.90268 38.1179 7.77968 36.9846 7.77968C35.3573 7.77968 33.9916 8.02568 32.8292 8.51768C31.6669 9.00969 30.7952 9.65544 30.214 10.4857C29.6038 11.3159 29.3132 12.2692 29.3132 13.3147C29.3132 14.6062 29.6328 15.621 30.2721 16.3282C30.9114 17.0662 31.6669 17.5582 32.5387 17.8042C33.4104 18.081 34.4856 18.2962 35.7641 18.45C36.7521 18.6037 37.4495 18.7575 37.9145 18.9112C38.3794 19.065 38.6119 19.311 38.6119 19.68C38.6119 20.049 38.4085 20.3565 38.0307 20.541C37.6529 20.7255 37.0137 20.8177 36.1419 20.8177C35.1539 20.8177 34.195 20.6947 33.207 20.418C32.219 20.1412 31.3473 19.7722 30.6499 19.2802L28.9935 23.2778C29.749 23.8005 30.7952 24.231 32.0737 24.5385Z" fill="#0A0A0A"/>
<path d="M57.0021 24.0466L55.6363 19.9569C55.1424 20.3259 54.5902 20.4796 53.951 20.4796C53.4279 20.4796 53.0211 20.3259 52.7305 19.9876C52.4399 19.6494 52.2946 19.1881 52.2946 18.5731V13.0381H55.8979V8.67154H52.2946V4.33577H46.7735V8.67154H44.4779V13.0381H46.7735V18.6346C46.7735 20.7564 47.3256 22.3554 48.4298 23.4009C49.5341 24.4771 51.1032 24.9999 53.1664 24.9999C53.9219 24.9999 54.6193 24.9384 55.2876 24.7539C55.956 24.6001 56.5372 24.3541 57.0021 24.0466Z" fill="#0A0A0A"/>
<path d="M66.5702 8.36393C65.6694 8.73293 64.9429 9.31719 64.3908 10.0552V8.05643H59.1312V24.723H64.6523V17.0662C64.6523 15.6825 64.972 14.637 65.6403 13.9605C66.3087 13.284 67.2385 12.9457 68.4299 12.9457C68.7496 12.9457 69.1564 12.9765 69.6794 13.038V7.77968C68.5171 7.77968 67.471 7.99493 66.5702 8.36393Z" fill="#0A0A0A"/>
<path d="M87.7986 17.8657C87.8567 16.9432 87.8858 16.482 87.8858 16.4205C87.8858 14.637 87.508 13.0995 86.7525 11.808C85.997 10.5164 85.009 9.50169 83.7305 8.82518C82.4519 8.14868 81.028 7.77968 79.4589 7.77968C77.8025 7.77968 76.3206 8.14868 75.0129 8.88668C73.6762 9.62469 72.6592 10.6702 71.9037 11.9617C71.1481 13.2532 70.7994 14.7292 70.7994 16.359C70.7994 18.0195 71.1772 19.5262 71.9327 20.8177C72.6883 22.14 73.7925 23.1548 75.1873 23.8928C76.5821 24.6308 78.1803 24.9998 80.04 24.9998C82.9749 24.9998 85.2124 24.108 86.7525 22.2938L83.8467 19.0957C83.2655 19.6185 82.7134 19.9875 82.1613 20.2027C81.6092 20.4487 80.9699 20.541 80.2144 20.541C79.1973 20.541 78.3546 20.3257 77.6863 19.8645C77.018 19.4032 76.5821 18.7267 76.3496 17.8657H87.7986ZM77.3376 12.6997C77.9188 12.2077 78.6162 11.931 79.4879 11.931C80.3306 11.931 81.028 12.2077 81.6092 12.6997C82.1903 13.2225 82.5391 13.9297 82.7134 14.7907H76.2624C76.4077 13.9297 76.7564 13.2225 77.3376 12.6997Z" fill="#0A0A0A"/>
<path d="M106.471 17.8657C106.529 16.9432 106.558 16.482 106.558 16.4205C106.558 14.637 106.18 13.0995 105.425 11.808C104.669 10.5164 103.681 9.50169 102.403 8.82518C101.124 8.14868 99.7004 7.77968 98.1312 7.77968C96.4749 7.77968 94.9929 8.14868 93.6853 8.88668C92.3486 9.62469 91.3316 10.6702 90.576 11.9617C89.8205 13.2532 89.4718 14.7292 89.4718 16.359C89.4718 18.0195 89.8496 19.5262 90.6051 20.8177C91.3606 22.14 92.4648 23.1548 93.8596 23.8928C95.2544 24.6308 96.8527 24.9998 98.7124 24.9998C101.647 24.9998 103.885 24.108 105.425 22.2938L102.519 19.0957C101.938 19.6185 101.386 19.9875 100.834 20.2027C100.282 20.4487 99.6423 20.541 98.8867 20.541C97.8697 20.541 97.027 20.3257 96.3587 19.8645C95.6903 19.4032 95.2544 18.7267 95.022 17.8657H106.471ZM96.01 12.6997C96.5911 12.2077 97.2885 11.931 98.1603 11.931C99.003 11.931 99.7004 12.2077 100.282 12.6997C100.863 13.2225 101.211 13.9297 101.386 14.7907H94.9348C95.0801 13.9297 95.4288 13.2225 96.01 12.6997Z" fill="#0A0A0A"/>
<path d="M120 24.0466L118.634 19.9569C118.14 20.3259 117.588 20.4796 116.949 20.4796C116.426 20.4796 116.019 20.3259 115.728 19.9876C115.438 19.6494 115.293 19.1881 115.293 18.5731V13.0381H118.896V8.67154H115.293V4.33577H109.771V8.67154H107.476V13.0381H109.771V18.6346C109.771 20.7564 110.324 22.3554 111.428 23.4009C112.532 24.4771 114.101 24.9999 116.164 24.9999C116.92 24.9999 117.617 24.9384 118.286 24.7539C118.954 24.6001 119.535 24.3541 120 24.0466Z" fill="#0A0A0A"/>
</g>
<defs>
<clipPath id="clip0_386_943">
<rect width="120" height="25" fill="white"/>
</clipPath>
</defs>
</svg>
