<svg width="24" height="24" viewBox="0 0 24 24" fill="none" xmlns="http://www.w3.org/2000/svg">
<path d="M7.70711 6.29289L7 5.58579L5.58579 7L6.29289 7.70711L7.70711 6.29289ZM16.2929 17.7071L17 18.4142L18.4142 17L17.7071 16.2929L16.2929 17.7071ZM6.29289 7.70711L16.2929 17.7071L17.7071 16.2929L7.70711 6.29289L6.29289 7.70711Z" fill="#0A0A0A"/>
<path d="M6.29289 16.2929L5.58579 17L7 18.4142L7.70711 17.7071L6.29289 16.2929ZM17.7071 7.70711L18.4142 7L17 5.58579L16.2929 6.29289L17.7071 7.70711ZM7.70711 17.7071L17.7071 7.70711L16.2929 6.29289L6.29289 16.2929L7.70711 17.7071Z" fill="#0A0A0A"/>
</svg>
