<svg width="47" height="15" viewBox="0 0 47 15" fill="none" xmlns="http://www.w3.org/2000/svg">
<g clip-path="url(#clip0_83_402)">
<path d="M43.8392 0.214355H40.8845C39.9912 0.214355 39.3041 0.50007 38.8918 1.42864L33.2573 14.7858H37.2427C37.2427 14.7858 37.9298 13.0001 38.0673 12.5715C38.4795 12.5715 42.3962 12.5715 42.9459 12.5715C43.0833 13.0715 43.4269 14.7144 43.4269 14.7144H47L43.8392 0.214355ZM39.1667 9.5715C39.5102 8.71436 40.6784 5.50007 40.6784 5.50007C40.6784 5.5715 41.0219 4.64293 41.1594 4.14293L41.4342 5.42864C41.4342 5.42864 42.1901 8.92864 42.3275 9.64293H39.1667V9.5715Z" fill="#0A0A0A"/>
<path d="M33.5322 10C33.5322 13 30.9211 15 26.867 15C25.1491 15 23.5 14.6429 22.6068 14.2143L23.1565 10.9286L23.6375 11.1429C24.8743 11.7143 25.6989 11.9286 27.2105 11.9286C28.31 11.9286 29.4781 11.5 29.4781 10.5C29.4781 9.85714 28.9971 9.42857 27.4854 8.71429C26.0424 8 24.1184 6.85714 24.1184 4.78571C24.1184 1.92857 26.7983 0 30.5775 0C32.0205 0 33.2573 0.285714 34.0132 0.642857L33.4635 3.78571L33.1886 3.5C32.5015 3.21429 31.6082 2.92857 30.3027 2.92857C28.8597 3 28.1725 3.64286 28.1725 4.21429C28.1725 4.85714 28.9971 5.35714 30.3027 6C32.5015 7.07143 33.5322 8.28571 33.5322 10Z" fill="#0A0A0A"/>
<path d="M0 0.357003L0.0687134 0.0712891H5.97807C6.80263 0.0712891 7.42105 0.357003 7.62719 1.28557L8.93275 7.71415C7.62719 4.28557 4.6038 1.49986 0 0.357003Z" fill="#B6BAC4"/>
<path d="M17.2471 0.214007L11.269 14.714H7.21491L3.77924 2.57115C6.25292 4.21401 8.31432 6.78544 9.07017 8.57115L9.48245 10.0711L13.193 0.142578H17.2471V0.214007Z" fill="#0A0A0A"/>
<path d="M18.8275 0.142578H22.6068L20.2018 14.714H16.4225L18.8275 0.142578Z" fill="#0A0A0A"/>
</g>
<defs>
<clipPath id="clip0_83_402">
<rect width="47" height="15" fill="white"/>
</clipPath>
</defs>
</svg>
