<svg width="44" height="25" viewBox="0 0 44 25" fill="none" xmlns="http://www.w3.org/2000/svg">
<g clip-path="url(#clip0_83_389)">
<path d="M44 12.5C44 19.359 38.1107 25 30.8 25C23.5569 25 17.6 19.359 17.6 12.5C17.6 5.64103 23.4892 0 30.7323 0C38.1107 0 44 5.64103 44 12.5Z" fill="#B6BAC4"/>
<path d="M26.3323 12.5641C26.3323 11.6667 26.1969 10.7692 26.0615 9.9359H17.9385C18.0062 9.48718 18.1415 9.10256 18.2769 8.58974H25.52C25.3846 8.14103 25.1815 7.69231 24.9785 7.24359H18.8185C19.0215 6.79487 19.2923 6.41026 19.5631 5.89744H24.2338C23.9631 5.44872 23.6246 5 23.2185 4.55128H20.6462C21.0523 4.10256 21.4585 3.71795 22 3.26923C19.6985 1.21795 16.5846 0 13.1323 0C5.95692 0.192308 0 5.64103 0 12.5C0 19.359 5.88923 25 13.2 25C16.6523 25 19.6985 23.718 22.0677 21.7308C22.5415 21.3462 22.9477 20.8974 23.4215 20.3846H20.7138C20.3754 20 20.0369 19.5513 19.7662 19.1026H24.3692C24.64 18.7179 24.9108 18.2692 25.1138 17.7564H18.9538C18.7508 17.3718 18.5477 16.9231 18.4123 16.4103H25.6554C26.0615 15.2564 26.3323 13.9744 26.3323 12.5641Z" fill="#0A0A0A"/>
<path d="M17.8708 15.7049L18.0739 14.5511C18.0062 14.5511 17.8708 14.6152 17.7354 14.6152C17.2616 14.6152 17.1939 14.3588 17.2616 14.2306L17.6677 11.9229H18.4123L18.6154 10.6408H17.9385L18.0739 9.87158H16.6523C16.6523 9.87158 15.84 14.2306 15.84 14.7434C15.84 15.5126 16.3139 15.8972 16.9908 15.8972C17.397 15.8972 17.7354 15.769 17.8708 15.7049Z" fill="white"/>
<path d="M18.3446 13.5897C18.3446 15.4487 19.6985 15.8974 20.7815 15.8974C21.7969 15.8974 22.2708 15.7051 22.2708 15.7051L22.5415 14.423C22.5415 14.423 21.7969 14.7435 21.0523 14.7435C19.4954 14.7435 19.7661 13.6538 19.7661 13.6538H22.6092C22.6092 13.6538 22.8123 12.8204 22.8123 12.4358C22.8123 11.6025 22.3385 10.5128 20.7815 10.5128C19.4277 10.4487 18.3446 11.923 18.3446 13.5897ZM20.7815 11.6666C21.5261 11.6666 21.3908 12.4999 21.3908 12.564H19.8338C19.9015 12.4999 20.0369 11.6666 20.7815 11.6666Z" fill="white"/>
<path d="M29.6492 15.7053L29.92 14.231C29.92 14.231 29.2431 14.5515 28.7015 14.5515C27.7539 14.5515 27.28 13.8463 27.28 13.013C27.28 11.4104 28.0923 10.5771 29.1077 10.5771C29.7846 10.5771 30.3939 10.9617 30.3939 10.9617L30.5969 9.55147C30.5969 9.55147 29.7846 9.23096 28.9723 9.23096C27.3477 9.23096 25.7908 10.5771 25.7908 13.0771C25.7908 14.7438 26.6031 15.8335 28.2954 15.8335C28.9046 15.8976 29.6492 15.7053 29.6492 15.7053Z" fill="white"/>
<path d="M10.2215 10.4487C9.27385 10.4487 8.52924 10.7051 8.52924 10.7051L8.32616 11.859C8.32616 11.859 8.93539 11.6026 9.88308 11.6026C10.3569 11.6026 10.7631 11.6667 10.7631 12.0513C10.7631 12.3077 10.6954 12.3718 10.6954 12.3718H10.0862C8.8677 12.3718 7.58154 12.8205 7.58154 14.359C7.58154 15.5769 8.39385 15.8333 8.93539 15.8333C9.88308 15.8333 10.3569 15.2564 10.4246 15.2564L10.3569 15.7692H11.5077L12.0492 12.1154C12.0492 10.5128 10.6954 10.4487 10.2215 10.4487ZM10.4923 13.3974C10.4923 13.5898 10.3569 14.6795 9.54462 14.6795C9.13847 14.6795 9.00308 14.359 9.00308 14.1667C9.00308 13.8462 9.20616 13.3974 10.2892 13.3974C10.4246 13.3974 10.4923 13.3974 10.4923 13.3974Z" fill="white"/>
<path d="M13.4031 15.8335C13.7415 15.8335 15.5015 15.8976 15.5015 14.1027C15.5015 12.436 13.8092 12.7566 13.8092 12.1155C13.8092 11.795 14.08 11.6668 14.5538 11.6668C14.7569 11.6668 15.5015 11.7309 15.5015 11.7309L15.7046 10.513C15.7046 10.513 15.2308 10.3848 14.3508 10.3848C13.3354 10.3848 12.2523 10.7694 12.2523 12.1155C12.2523 13.654 14.0123 13.5258 14.0123 14.1027C14.0123 14.4873 13.5384 14.5514 13.2 14.5514C12.5908 14.5514 11.9138 14.3591 11.9138 14.3591L11.7108 15.5771C11.8461 15.7053 12.2523 15.8335 13.4031 15.8335Z" fill="white"/>
<path d="M41.2923 9.42285L41.0215 11.2177C41.0215 11.2177 40.48 10.5767 39.6677 10.5767C38.3815 10.5767 37.2985 12.0511 37.2985 13.7818C37.2985 14.8716 37.84 15.9613 39.0585 15.9613C39.8708 15.9613 40.4123 15.4485 40.4123 15.4485L40.3446 15.8972H41.7662L42.7815 9.55106L41.2923 9.42285ZM40.6154 12.8844C40.6154 13.5895 40.2769 14.5511 39.4646 14.5511C38.9908 14.5511 38.72 14.1664 38.72 13.4613C38.72 12.3716 39.1938 11.7305 39.8708 11.7305C40.3446 11.7946 40.6154 12.1152 40.6154 12.8844Z" fill="white"/>
<path d="M2.57229 15.769L3.3846 11.0254L3.51998 15.769H4.46768L6.29537 11.0254L5.55075 15.769H7.03998L8.19075 9.42285H5.88921L4.46768 13.3331L4.39998 9.42285H2.36921L1.21844 15.769H2.57229Z" fill="white"/>
<path d="M24.2339 15.7695C24.64 13.59 24.7077 11.7951 25.7231 12.1156C25.8585 11.2823 26.0616 10.8977 26.1969 10.5771H25.9262C25.3169 10.5771 24.7754 11.3464 24.7754 11.3464L24.9108 10.6413H23.5569L22.6769 15.7695H24.2339V15.7695Z" fill="white"/>
<path d="M32.8985 10.4487C31.9508 10.4487 31.2062 10.7051 31.2062 10.7051L31.0031 11.859C31.0031 11.859 31.6123 11.6026 32.56 11.6026C33.0339 11.6026 33.44 11.6667 33.44 12.0513C33.44 12.3077 33.3723 12.3718 33.3723 12.3718H32.7631C31.5446 12.3718 30.2585 12.8205 30.2585 14.359C30.2585 15.5769 31.0708 15.8333 31.6123 15.8333C32.56 15.8333 33.0339 15.2564 33.1016 15.2564L33.0339 15.7692H34.32L34.8616 12.1154C34.8616 10.5128 33.3723 10.4487 32.8985 10.4487ZM33.2369 13.3974C33.2369 13.5898 33.1016 14.6795 32.2893 14.6795C31.8831 14.6795 31.7477 14.359 31.7477 14.1667C31.7477 13.8462 31.9508 13.3974 33.0339 13.3974C33.1693 13.3974 33.1693 13.3974 33.2369 13.3974Z" fill="white"/>
<path d="M35.9446 15.7695C36.3508 13.59 36.4185 11.7951 37.4338 12.1156C37.5692 11.2823 37.7723 10.8977 37.9077 10.5771H37.6369C37.0277 10.5771 36.4862 11.3464 36.4862 11.3464L36.6215 10.6413H35.2677L34.3877 15.7695H35.9446V15.7695Z" fill="white"/>
</g>
<defs>
<clipPath id="clip0_83_389">
<rect width="44" height="25" fill="white"/>
</clipPath>
</defs>
</svg>
