<svg width="50" height="15" viewBox="0 0 50 15" fill="none" xmlns="http://www.w3.org/2000/svg">
<g clip-path="url(#clip0_83_408)">
<path d="M44.8598 0H35.2336C35.7944 3.29031 38.8785 6.38708 42.243 6.38708H49.9065C50 6.09676 50 5.61288 50 5.32256C50 2.41935 47.6635 0 44.8598 0Z" fill="#B6BAC4"/>
<path d="M36.0747 6.96777V15H40.7476V10.7419H44.8597C47.1027 10.7419 49.0653 9.0968 49.7195 6.96777H36.0747Z" fill="#0A0A0A"/>
<path d="M19.6261 0V14.9032H23.7383C23.7383 14.9032 24.7663 14.9032 25.327 13.8387C28.1308 8.12901 28.9719 6.38708 28.9719 6.38708H29.5326V14.9032H34.2055V0H30.0934C30.0934 0 29.0653 0.0967798 28.5046 1.06452C26.1681 5.99999 24.8597 8.5161 24.8597 8.5161H24.299V0H19.6261Z" fill="#0A0A0A"/>
<path d="M0 14.9999V0.0966797H4.67289C4.67289 0.0966797 5.98131 0.0966767 6.72897 2.2257C8.59813 7.83859 8.78505 8.61278 8.78505 8.61278C8.78505 8.61278 9.15887 7.25794 10.8411 2.2257C11.5888 0.0966767 12.8972 0.0966797 12.8972 0.0966797H17.5701V14.9999H12.8972V6.96763H12.3364L9.71963 14.9999H7.66355L5.04674 6.96763H4.48599V14.9999H0Z" fill="#0A0A0A"/>
</g>
<defs>
<clipPath id="clip0_83_408">
<rect width="50" height="15" fill="white"/>
</clipPath>
</defs>
</svg>
